<?xml version="1.0" standalone="no"?>
<!DOCTYPE svg PUBLIC "-//W3C//DTD SVG 20010904//EN"
 "http://www.w3.org/TR/2001/REC-SVG-20010904/DTD/svg10.dtd">
<svg version="1.0" xmlns="http://www.w3.org/2000/svg"
 width="950.000000pt" height="308.000000pt" viewBox="0 0 950.000000 308.000000"
 preserveAspectRatio="xMidYMid meet">

<g transform="translate(0.000000,308.000000) scale(0.100000,-0.100000)"
fill="#000000" stroke="none">
<path d="M6780 2133 c0 -70 -4 -72 -104 -75 l-91 -3 -7 -105 c-3 -58 -16 -258
-27 -445 -11 -187 -23 -364 -26 -392 l-5 -53 156 0 157 0 -7 -50 -7 -50 404 0
405 0 6 108 c4 59 11 170 16 247 5 77 14 212 20 300 5 88 13 199 16 248 l6 87
-41 0 c-23 0 -41 -4 -41 -10 0 -5 14 -10 31 -10 l30 0 -5 -67 c-4 -38 -13
-178 -21 -313 -8 -135 -20 -306 -25 -381 -6 -74 -10 -147 -10 -162 l0 -27
-386 0 -386 0 6 23 c3 12 6 30 6 40 0 16 18 17 240 17 l239 0 3 58 3 57 82 3
82 3 5 42 c3 23 12 166 21 317 9 151 20 331 26 399 5 68 9 146 9 172 l0 49
-390 0 -390 0 0 -27z m586 -165 c-4 -40 -15 -219 -26 -398 -11 -179 -23 -362
-26 -407 l-7 -83 -384 0 -384 0 5 33 c3 17 17 228 32 467 14 239 27 441 29
448 3 9 89 12 386 12 l381 0 -6 -72z"/>
<path d="M1430 1575 l0 -395 245 0 245 0 0 30 0 30 -210 0 -210 0 0 365 0 365
-35 0 -35 0 0 -395z"/>
<path d="M2252 1673 c3 -297 3 -298 29 -353 55 -115 123 -154 274 -155 91 0
105 3 160 30 71 35 117 96 134 175 6 30 11 166 11 325 l0 275 -34 0 -34 0 -4
-292 c-3 -272 -5 -296 -25 -339 -26 -58 -74 -95 -142 -110 -112 -24 -217 13
-261 91 -25 45 -25 48 -30 345 l-5 300 -38 3 -39 3 4 -298z"/>
<path d="M3257 1963 c-4 -3 -7 -181 -7 -395 l0 -388 40 0 40 0 2 345 3 346
126 -343 127 -343 35 -3 c34 -3 36 -2 55 50 10 29 68 186 128 349 l109 297 3
-349 2 -349 35 0 35 0 0 395 0 395 -54 0 -54 0 -37 -102 c-21 -57 -76 -209
-123 -338 -47 -129 -88 -239 -92 -243 -6 -7 -99 233 -231 596 l-32 87 -52 0
c-28 0 -55 -3 -58 -7z"/>
<path d="M4387 1963 c-4 -3 -7 -181 -7 -395 l0 -388 270 0 270 0 0 30 0 30
-230 0 -230 0 0 160 0 160 200 0 200 0 0 30 0 30 -200 0 -200 0 0 140 0 140
223 2 222 3 3 33 3 32 -259 0 c-142 0 -262 -3 -265 -7z"/>
<path d="M5270 1575 l0 -395 35 0 35 0 0 341 c0 187 3 338 8 335 4 -2 106
-155 227 -340 l220 -335 43 -1 42 0 0 395 0 395 -35 0 -35 0 0 -347 0 -348
-230 348 -231 347 -39 0 -40 0 0 -395z"/>
</g>
</svg>
