<?xml version="1.0" standalone="no"?>
<!DOCTYPE svg PUBLIC "-//W3C//DTD SVG 20010904//EN"
 "http://www.w3.org/TR/2001/REC-SVG-20010904/DTD/svg10.dtd">
<svg version="1.0" xmlns="http://www.w3.org/2000/svg"
 width="200.000000pt" height="200.000000pt" viewBox="0 0 200.000000 200.000000"
 preserveAspectRatio="xMidYMid meet">

<g transform="translate(0.000000,200.000000) scale(0.100000,-0.100000)"
fill="#000000" stroke="none">
<path d="M640 1583 c0 -70 -4 -72 -104 -75 l-91 -3 -7 -105 c-3 -58 -16 -258
-27 -445 -11 -187 -23 -364 -26 -392 l-5 -53 156 0 157 0 -7 -50 -7 -50 404 0
405 0 6 108 c4 59 11 170 16 247 5 77 14 212 20 300 5 88 13 199 16 248 l6 87
-41 0 c-23 0 -41 -4 -41 -10 0 -5 14 -10 31 -10 l30 0 -5 -67 c-4 -38 -13
-178 -21 -313 -8 -135 -20 -306 -25 -381 -6 -74 -10 -147 -10 -162 l0 -27
-386 0 -386 0 6 23 c3 12 6 30 6 40 0 16 18 17 240 17 l239 0 3 57 3 58 82 3
82 3 5 42 c3 23 12 166 21 317 9 151 20 331 26 399 5 68 9 146 9 172 l0 49
-390 0 -390 0 0 -27z m586 -165 c-4 -40 -15 -219 -26 -398 -11 -179 -23 -362
-26 -408 l-7 -82 -384 0 -384 0 5 33 c3 17 17 228 32 467 14 239 27 441 29
448 3 9 89 12 386 12 l381 0 -6 -72z"/>
</g>
</svg>
