<?xml version="1.0" standalone="no"?>
<!DOCTYPE svg PUBLIC "-//W3C//DTD SVG 20010904//EN"
 "http://www.w3.org/TR/2001/REC-SVG-20010904/DTD/svg10.dtd">
<svg version="1.0" xmlns="http://www.w3.org/2000/svg"
 width="567.000000pt" height="175.000000pt" viewBox="0 0 567.000000 175.000000"
 preserveAspectRatio="xMidYMid meet">

<g transform="translate(0.000000,175.000000) scale(0.100000,-0.100000)"
fill="#000000" stroke="none">
<path d="M650 925 l0 -395 245 0 245 0 0 30 0 30 -210 0 -210 0 0 365 0 365
-35 0 -35 0 0 -395z"/>
<path d="M1472 1023 c3 -297 3 -298 29 -353 55 -115 123 -154 274 -155 91 0
105 3 160 30 71 35 117 96 134 175 6 30 11 166 11 325 l0 275 -34 0 -34 0 -4
-292 c-3 -272 -5 -296 -25 -339 -26 -58 -74 -95 -142 -110 -112 -24 -217 13
-261 91 -25 45 -25 48 -30 345 l-5 300 -38 3 -39 3 4 -298z"/>
<path d="M2477 1313 c-4 -3 -7 -181 -7 -395 l0 -388 40 0 40 0 2 345 3 346
126 -343 127 -343 35 -3 c34 -3 36 -2 55 50 10 29 68 186 128 349 l109 297 3
-349 2 -349 35 0 35 0 0 395 0 395 -54 0 -54 0 -37 -102 c-21 -57 -76 -209
-123 -338 -47 -129 -88 -239 -92 -243 -6 -7 -99 233 -231 596 l-32 87 -52 0
c-28 0 -55 -3 -58 -7z"/>
<path d="M3607 1313 c-4 -3 -7 -181 -7 -395 l0 -388 270 0 270 0 0 30 0 30
-230 0 -230 0 0 160 0 160 200 0 200 0 0 30 0 30 -200 0 -200 0 0 140 0 140
223 2 222 3 3 33 3 32 -259 0 c-142 0 -262 -3 -265 -7z"/>
<path d="M4490 925 l0 -395 35 0 35 0 0 341 c0 187 3 338 8 335 4 -2 106 -155
227 -340 l220 -335 43 -1 42 0 0 395 0 395 -35 0 -35 0 0 -347 0 -348 -230
348 -231 347 -39 0 -40 0 0 -395z"/>
</g>
</svg>
